<?xml version="1.0" encoding="UTF-8"?>
<svg id="_图层_2" data-name="图层 2" xmlns="http://www.w3.org/2000/svg" width="63.558mm" height="13.64mm" viewBox="0 0 180.163 38.665">
  <g id="_图层_1-2" data-name="图层 1">
    <g>
      <g>
        <path d="M14.901,14.158h-2.107v20.884c0,1.851,1.501,3.352,3.352,3.352h23.833v-1.211H17.195c-1.267,0-2.294-1.027-2.294-2.294V14.158Z" fill="#fff"/>
        <path d="M40.229,38.644H16.146c-1.986,0-3.602-1.616-3.602-3.602V13.908h2.607v20.981c0,1.127,.917,2.043,2.044,2.043h23.033v1.711ZM13.044,14.408v20.634c0,1.71,1.392,3.102,3.102,3.102h23.583v-.711H17.195c-1.402,0-2.544-1.141-2.544-2.543V14.408h-1.607Z" fill="#fff"/>
      </g>
      <g>
        <path d="M19.358,3.215H6.447V.25h-1.896V3.215H.125v2.965H4.551v2.965h1.896v-2.965h12.893c.017-.953,.017-1.919,.017-2.965Z" fill="#fff"/>
        <path d="M6.572,9.271h-2.146v-2.965H0V3.09H4.426V.125h2.146V3.09h12.91v.125c0,1.035,0,2.013-.018,2.967l-.002,.123H6.572v2.965Zm-1.896-.25h1.646v-2.965h12.895c.015-.875,.016-1.771,.016-2.715H6.322V.375h-1.646V3.34H.25v2.715H4.676v2.965Z" fill="#fff"/>
      </g>
      <g>
        <rect x="1.413" y="14.158" width="1.896" height="24.236" fill="#fff"/>
        <path d="M3.56,38.644H1.163V13.908H3.56v24.736Zm-1.896-.5h1.396V14.408H1.663v23.736Z" fill="#fff"/>
      </g>
      <g>
        <rect x="45.67" y="14.158" width="2.107" height="24.236" fill="#fff"/>
        <path d="M48.027,38.644h-2.607V13.908h2.607v24.736Zm-2.107-.5h1.607V14.408h-1.607v23.736Z" fill="#fff"/>
      </g>
      <g>
        <rect x="27.546" y="14.158" width="1.896" height="19.389" fill="#fff"/>
        <path d="M29.692,33.797h-2.396V13.908h2.396v19.889Zm-1.896-.5h1.396V14.408h-1.396v18.889Z" fill="#fff"/>
      </g>
      <g>
        <path d="M47.506,3.215V.25h-1.896V3.215h-13.733c.027,1.104,0,1.789,.057,2.965h13.676v2.965h1.896v-2.965h4.426V3.215h-4.426Z" fill="#fff"/>
        <path d="M47.631,9.271h-2.146v-2.965h-13.67l-.006-.119c-.035-.722-.039-1.255-.042-1.82-.003-.355-.005-.72-.016-1.148l-.003-.128h13.736V.125h2.146V3.09h4.426v3.215h-4.426v2.965Zm-1.896-.25h1.646v-2.965h4.426V3.34h-4.426V.375h-1.646V3.34h-13.73c.008,.375,.011,.704,.013,1.025,.003,.53,.007,1.033,.036,1.69h13.682v2.965Z" fill="#fff"/>
      </g>
      <g>
        <path d="M77.553,.25V38.394h-2.107V.25h2.107Zm11.982,38.144c-2.66,0-4.816-2.156-4.816-4.816V.25h1.896V32.882c0,2.23,1.808,4.037,4.037,4.037h23.148v1.475h-24.266ZM102.843,.25h1.896V32.915h-1.896V.25Zm18.966,38.144h-1.896V.25h1.896V38.394Z" fill="#fff"/>
        <path d="M122.06,38.644h-2.396V0h2.396V38.644Zm-1.896-.5h1.396V.5h-1.396V38.144Zm-6.113,.5h-24.516c-2.793,0-5.065-2.272-5.065-5.065V0h2.396V32.882c0,2.088,1.699,3.788,3.787,3.788h23.397v1.974ZM84.969,.5V33.578c0,2.518,2.048,4.565,4.565,4.565h24.016v-.974h-22.897c-2.364,0-4.287-1.923-4.287-4.288V.5h-1.396Zm-7.166,38.144h-2.607V0h2.607V38.644Zm-2.107-.5h1.607V.5h-1.607V38.144Zm29.294-4.978h-2.396V0h2.396V33.166Zm-1.896-.5h1.396V.5h-1.396V32.666Z" fill="#fff"/>
      </g>
      <g>
        <path d="M148.934,35.023l.211,1.896-15.595,1.475-.211-1.475,6.955-1.055-.211-19.282h-6.744v-1.896h6.744l.211-12.54h-6.744V.25h15.384l-.649,1.896h-6.095l-.095,12.54h5.805v1.896h-5.805l.095,19.071,6.744-.631Zm1.896-18.968V5.817c0-3.074,2.492-5.567,5.567-5.567h23.517v15.804h-13.699v4.215h13.699v1.898h-13.699v14.752h13.699v1.475h-29.083v-1.475h13.488v-14.752h-13.488v-1.898h13.488v-4.215h-13.488Zm1.896-13.908V7.203h11.592V2.146h-11.592Zm0,6.955v5.056h11.592v-5.056h-11.592Zm13.488-6.955V7.203h11.803V2.146h-11.803Zm0,6.955v5.056h11.803v-5.056h-11.803Z" fill="#fff"/>
        <path d="M133.335,38.665l-.279-1.956,6.985-1.06-.206-18.817h-6.747v-2.396h6.748l.203-12.04h-6.74V0h15.984l-.819,2.396h-6.026l-.091,12.04h5.803v2.396h-5.804l.093,18.546,6.717-.628,.266,2.394-16.086,1.521Zm.285-1.536l.143,.993,15.105-1.428-.156-1.399-6.771,.633-.097-19.595h5.806v-1.396h-5.807l.099-13.04h6.165l.478-1.396h-14.785V1.896h6.748l-.219,13.04h-6.74v1.396h6.741l.216,19.746-6.925,1.051Zm46.543,1.514h-29.583v-1.974h13.488v-14.252h-13.488v-2.398h13.488v-3.715h-13.488V5.817c0-3.208,2.609-5.817,5.816-5.817h23.767V16.304h-13.698v3.715h13.698v2.398h-13.698v14.252h13.698v1.974Zm-29.083-.5h28.583v-.974h-13.698v-15.252h13.698v-1.398h-13.698v-4.715h13.698V.5h-23.267c-1.381,0-2.642,.53-3.588,1.396h11.76V7.453h-12.092V2.229c-.867,.947-1.396,2.207-1.396,3.588V15.804h13.488v4.715h-13.488v1.398h13.488v15.252h-13.488v.974Zm1.896-31.19h11.092V2.396h-11.092V6.953Zm25.29,7.455h-12.302v-5.556h12.302v5.556Zm-11.802-.5h11.302v-4.556h-11.302v4.556Zm-1.896,.5h-12.092v-5.556h12.092v5.556Zm-11.592-.5h11.092v-4.556h-11.092v4.556Zm25.29-6.455h-12.302V1.896h12.302V7.453Zm-11.802-.5h11.302V2.396h-11.302V6.953Z" fill="#fff"/>
      </g>
    </g>
  </g>
</svg>