<?xml version="1.0" encoding="UTF-8"?>
<svg id="_图层_2" data-name="图层 2" xmlns="http://www.w3.org/2000/svg" width="55.898mm" height="5.392mm" viewBox="0 0 158.451 15.283">
  <g id="_图层_1-2" data-name="图层 1">
    <g>
      <g>
        <path d="M8.011,6.94v1.266H.125v-1.266h7.886Z" fill="#fff"/>
        <path d="M8.137,8.33H0v-1.516H8.137v1.516Zm-7.887-.25H7.887v-1.016H.25v1.016Z" fill="#fff"/>
      </g>
      <g>
        <path d="M26.753,.125V1.558c-.818,.04-3.08-.064-7.983,.027-.506,.009-.269-.097-.333-.097V13.657c.13,0-.088,0,.431,0,4.933-.065,7.392-.023,7.886-.042v1.405h-10.222V.125h10.222Z" fill="#fff"/>
        <path d="M26.878,15.146h-10.473V0h10.473V1.677l-.119,.006c-.307,.015-.81,.01-1.571,.002-1.324-.013-3.33-.033-6.416,.024-.083,.001-.154,0-.211-.004V13.532h.306c3.255-.043,5.399-.038,6.681-.036,.645,0,1.036,.002,1.201-.005l.13-.005v1.659Zm-10.223-.25h9.973v-1.151c-.21,.003-.562,.002-1.082,.002-1.28-.003-3.424-.007-6.678,.036h-.558V1.542c0-.007,0-.014,0-.021v-.158h.195l.066,.093c.038,.004,.102,.008,.195,.004,3.088-.058,5.095-.037,6.423-.024,.665,.007,1.131,.012,1.438,.002V.25h-9.973V14.896Z" fill="#fff"/>
      </g>
      <g>
        <path d="M36.705,.125h8.399V15.02h-10.222V1.948c0-1.007,.816-1.823,1.823-1.823Zm-.558,1.363V13.657h7.594V1.488h-7.594Z" fill="#fff"/>
        <path d="M45.229,15.146h-10.473V1.948c0-1.074,.874-1.948,1.948-1.948h8.524V15.146Zm-10.223-.25h9.973V.25h-8.274c-.937,0-1.698,.762-1.698,1.698V14.896Zm8.859-1.113h-7.844V1.363h7.844V13.782Zm-7.594-.25h7.344V1.613h-7.344V13.532Z" fill="#fff"/>
      </g>
      <g>
        <path d="M55.374,15.02h-1.363V1.488h1.363V5.966h7.107V1.488h-8.47V.125h9.833V7.232h-8.47v7.789Zm7.697-6.773l.056,6.908-1.218-.038-.101-6.823,1.263-.047Z" fill="#fff"/>
        <path d="M63.253,15.283l-1.468-.045-.104-7.064,1.515-.057,.058,7.166Zm-1.222-.287l.97,.029-.054-6.648-1.013,.037,.097,6.582Zm-6.533,.149h-1.612V0h10.083V7.356h-8.471v7.789Zm-1.362-.25h1.112V7.106h8.471V.25h-9.583V1.363h8.47V6.091h-7.357V1.613h-1.112V14.896Zm1.362-9.055h6.857V1.613h-6.857V5.841Z" fill="#fff"/>
      </g>
      <g>
        <path d="M73.141,1.488V.125h11.78V1.488h-11.78Zm0,.111h1.363V13.657h10.515v1.363h-11.878V1.598Zm2.337,6.607v-1.266h7.496v1.266h-7.496Z" fill="#fff"/>
        <path d="M85.144,15.146h-12.127V0h12.03V1.613h-10.418V13.532h10.515v1.613Zm-11.877-.25h11.627v-1.113h-10.515V1.723h-1.112V14.896Zm0-13.533h11.53V.25h-11.53V1.363Zm9.833,6.967h-7.747v-1.516h7.747v1.516Zm-7.497-.25h7.247v-1.016h-7.247v1.016Z" fill="#fff"/>
      </g>
      <g>
        <path d="M94.803,15.02h-1.363V1.598h1.363V5.966h7.594V1.488h-8.957V.125h10.222V7.232h-8.859v7.789Z" fill="#fff"/>
        <path d="M94.928,15.146h-1.612V0h10.473V7.356h-8.86v7.789Zm-1.362-.25h1.112V7.106h8.86V.25h-9.973V1.363h8.957V6.091h-7.845V1.723h-1.112V14.896Zm1.362-9.055h7.345V1.613h-7.345V5.841Z" fill="#fff"/>
      </g>
      <g>
        <path d="M122.404,.125V1.488h-8.957V5.966h9.054v1.363h-10.32V.125h10.222Zm.097,7.448v7.448h-10.32v-1.363h8.957V7.573h1.363Z" fill="#fff"/>
        <path d="M122.626,15.146h-10.569v-1.613h8.957V7.454h-8.957V0h10.473V1.613h-8.957V5.841h9.054V15.146Zm-10.319-.25h10.069V7.697h-1.112v6.085h-8.957v1.113Zm0-7.691h10.069v-1.113h-9.054V1.363h8.957V.25h-9.973V7.204Z" fill="#fff"/>
      </g>
      <g>
        <path d="M131.409,.222h1.363V6.064l3.602,.974-.195,1.363-4.186-1.168q-.571-.221-.584-.681V.222Zm9.026,.076l-.021-.174h1.217V7.621c0,.065,.006,.045,0,.267-.009,.137-.097,.058-.097,.123-.26,.195-1.394,.672-3.341,1.581-.565,.218-.929,.421-1.124,.486,0,.26,.016,.602,.016,.926,.005-.083-.05,3.428-.03,4.016h-1.168v-5.452c.016-.124-.03-.155,.097-.292,.325-.26,1.785-.974,4.381-2.142,0-.13,.008-.524,.021-1.177,.07-3.443,.012-5.103,.048-5.66Z" fill="#fff"/>
        <path d="M137.185,15.146h-1.422v-5.577c.004-.042,.004-.062,.004-.081,0-.093,.009-.168,.127-.296,.345-.278,1.764-.974,4.349-2.138,.002-.18,.009-.547,.021-1.099,.042-2.036,.038-3.445,.036-4.377-.002-.625-.003-1.042,.012-1.276l-.036-.302h1.482V7.66c.002,.031,.004,.069,0,.23-.005,.074-.029,.159-.116,.196l-.031,.023c-.182,.137-.704,.375-1.654,.808-.473,.216-1.043,.476-1.709,.786-.325,.127-.575,.243-.776,.336-.106,.051-.198,.093-.273,.124,0,.1,.003,.209,.006,.322,.005,.168,.009,.346,.009,.518h-.01v.007h.01s-.01,0-.01,0c.01,.102,.007,.281,.003,.601-.012,.967-.037,2.98-.023,3.405l.004,.129Zm-1.172-.25h.915c-.008-.603,.015-2.326,.026-3.288,.005-.343,.008-.576,.007-.601h.063s-.063-.003-.063-.003c0-.17-.004-.346-.009-.511-.003-.15-.007-.292-.007-.415v-.09l.085-.028c.077-.026,.19-.079,.334-.146,.193-.09,.458-.213,.784-.339,.658-.308,1.229-.568,1.703-.784,.823-.375,1.383-.63,1.577-.758,.014-.026,.037-.051,.077-.066,.005-.135,.004-.168,.002-.195v-.05s0-7.371,0-7.371h-.951l.005,.057c-.015,.223-.014,.639-.012,1.27,.002,.934,.006,2.345-.036,4.384-.014,.65-.021,1.044-.021,1.174v.081l-.073,.033c-2.576,1.158-4.041,1.874-4.354,2.125-.047,.053-.047,.064-.047,.112,0,.028,0,.059-.005,.098v.082s0,5.229,0,5.229Zm.271-6.336l-.137-.039-4.187-1.169c-.605-.233-.661-.27-.676-.797V.097h1.613V5.968l3.617,.978-.231,1.614ZM131.534,.347V6.551q.011,.373,.504,.564l4.038,1.127,.159-1.113-3.588-.97V.347h-1.113Z" fill="#fff"/>
      </g>
      <g>
        <path d="M158.327,6.94v1.266h-7.886v-1.266h7.886Z" fill="#fff"/>
        <path d="M158.451,8.33h-8.136v-1.516h8.136v1.516Zm-7.886-.25h7.636v-1.016h-7.636v1.016Z" fill="#fff"/>
      </g>
    </g>
  </g>
</svg>